<?xml version="1.0" encoding="utf-8"?>
<!-- Generator: Adobe Illustrator 19.2.1, SVG Export Plug-In . SVG Version: 6.00 Build 0)  -->
<svg version="1.1" id="Ebene_1" xmlns="http://www.w3.org/2000/svg" xmlns:xlink="http://www.w3.org/1999/xlink" x="0px" y="0px"
	 width="595.280029px" height="841.890015px" viewBox="0 0 595.280029 841.890015"
	 style="enable-background:new 0 0 595.280029 841.890015;" xml:space="preserve">
<style type="text/css">
	.st0{clip-path:url(#SVGID_4_);fill:#575756;}
	.st1{clip-path:url(#SVGID_4_);}
	.st2{clip-path:url(#SVGID_6_);fill:#007EA8;}
	.st3{clip-path:url(#SVGID_6_);fill:#575756;}
	.st4{display:none;}
	.st5{display:inline;}
	.st6{display:inline;clip-path:url(#SVGID_8_);}
	.st7{clip-path:url(#SVGID_10_);}
	.st8{clip-path:url(#SVGID_12_);fill:#575756;}
	.st9{filter:url(#Adobe_OpacityMaskFilter);}
	.st10{clip-path:url(#SVGID_12_);fill:url(#SVGID_14_);}
	.st11{clip-path:url(#SVGID_12_);mask:url(#SVGID_13_);}
	.st12{clip-path:url(#SVGID_16_);fill:#007EA8;}
	.st13{fill:#46ADB1;}
	.st14{clip-path:url(#SVGID_18_);}
	.st15{opacity:0.600006;clip-path:url(#SVGID_20_);}
	.st16{clip-path:url(#SVGID_22_);}
	.st17{fill:none;}
	.st18{clip-path:url(#SVGID_24_);}
	.st19{clip-path:url(#SVGID_26_);}
	.st20{clip-path:url(#SVGID_28_);fill:none;stroke:#000000;stroke-width:0.5;stroke-miterlimit:10;}
</style>
<symbol  id="CE" viewBox="-24.5854 -18.6299 49.171299 37.258801">
	<g>
		<path d="M-6.06543,15.231v3.397901c-10.531771,0-18.51997-8.3408-18.51997-18.629877
			c0-10.288123,8.341299-18.628923,18.615669-18.628923v5.4238c0,0-4.06157-0.303699-7.40187,2.1485
			c0,0-6.0659,3.541-6.0307,11.086897C-19.3682,7.5752-13.4551,11.1011-13.2578,11.228
			c0.2524,0.1651,3.0884,2.127501,7.19481,2.1533L-6.06543,15.231z"/>
		<path d="M11.3818-2.50781C12.4834-8.3125,17.184601-11.0576,17.184601-11.0576c3.3398-2.4522,7.401299-2.1485,7.401299-2.1485
			v-5.4238c-10.2744,0-18.6152,8.3408-18.6152,18.628923c0,10.289077,7.9883,18.629877,18.519501,18.629877V15.231l0.003-1.8497
			c-4.106501-0.0258-6.943399-1.9882-7.195301-2.1533C17.1299,11.1187,12.7529,8.50781,11.4912,3.00342h10.2422v-5.51123H11.3818z"
			/>
	</g>
</symbol>
<use xlink:href="#CE"  width="49.171299" height="37.258801" x="-24.5854" y="-18.6299" transform="matrix(0.761031 0 0 -0.761031 76.696396 776.873108)" style="overflow:visible;"/>
<g>
	<defs>
		<rect id="SVGID_1_" x="86.191917" y="178.123428" width="357.234009" height="136.774002"/>
	</defs>
	<clipPath id="SVGID_2_">
		<use xlink:href="#SVGID_1_"  style="overflow:visible;"/>
	</clipPath>
</g>
<g>
	<g>
		<defs>
			<rect id="SVGID_3_" x="257.585541" y="33.94709" width="333.801147" height="79.05291"/>
		</defs>
		<clipPath id="SVGID_4_">
			<use xlink:href="#SVGID_3_"  style="overflow:visible;"/>
		</clipPath>
		<rect x="542.299622" y="57.33239" class="st0" width="4.491901" height="24.039942"/>
		<g class="st1">
			<defs>
				<rect id="SVGID_5_" x="257.585541" y="33.947865" width="333.801147" height="79.052132"/>
			</defs>
			<clipPath id="SVGID_6_">
				<use xlink:href="#SVGID_5_"  style="overflow:visible;"/>
			</clipPath>
			<path class="st2" d="M389.014679,81.372177v-9.157341c0-2.630989-0.73291-3.274017-3.55603-3.274017h-4.761505
				c-2.751831,0-3.534332,0.643028-3.534332,3.274017v9.157341h-4.371033V72.41317c0-5.03421,1.721466-6.837784,7.624908-6.837784
				h5.299164c5.92981,0,7.679169,1.803574,7.679169,6.837784v8.959007H389.014679z"/>
			<path class="st2" d="M344.886688,71.429108c0-2.262222,0.698822-2.511688,2.917664-2.511688h7.327393
				c1.330994,0,1.812866,0.271164,1.812866,1.317047v2.046844h-12.057922v-0.621338V71.429108z M344.886688,75.082741h16.439819
				v-5.189156c0-2.514778-1.267456-4.319908-5.850769-4.319908h-7.736481c-5.636932,0-7.262329,1.543266-7.262329,6.154472v3.628845
				c0,4.214546,1.984863,6.015022,7.050049,6.015022h12.938049l0.810364-3.289513h-13.748413
				c-2.06543,0-2.640289-0.347076-2.640289-2.260666v-0.441597V75.082741z"/>
			<rect x="364.983582" y="65.57399" class="st2" width="4.491901" height="15.798343"/>
			<rect x="364.982025" y="57.333939" class="st2" width="4.491901" height="4.121575"/>
			<rect x="485.339783" y="65.57399" class="st3" width="4.490341" height="15.798343"/>
			<rect x="485.339783" y="57.333939" class="st3" width="4.493438" height="4.121575"/>
			<path class="st3" d="M441.23938,71.430656c0-2.263771,0.726685-2.511681,2.936218-2.511681h7.313477
				c1.335632,0,1.805145,0.268059,1.805145,1.318588v2.043747h-12.05484v-0.622887V71.430656z M441.23938,75.085838h16.45993
				v-5.192253c0-2.514778-1.25351-4.318352-5.839905-4.318352h-7.730286c-5.65863,0-7.279388,1.54171-7.279388,6.152916v3.627304
				c0,4.216087,1.967834,6.016571,7.062469,6.016571h12.924072l0.810364-3.292618h-13.734436
				c-2.068542,0-2.672821-0.343979-2.672821-2.257568v-0.443146V75.085838z"/>
			<path class="st3" d="M403.655884,71.326378c0-3.951134,1.518463-5.751617,5.825958-5.751617h3.949615
				c3.304993,0,4.626678,0.923485,5.244934,2.81073c0.579468-1.887245,1.975555-2.81073,5.199982-2.81073h4.061157
				c4.296661,0,5.84613,1.800484,5.84613,5.751617v10.045174h-4.395844v-9.80191c0-1.977112-0.754578-2.632538-2.469849-2.632538
				h-2.912994c-2.683655,0-3.353027,0.661621-3.353027,2.632538v9.80191h-3.932526v-9.80191
				c0-1.970917-0.610504-2.632538-3.371643-2.632538h-2.85257c-1.788086,0-2.482239,0.655426-2.482239,2.632538v9.80191h-4.357086
				V71.326378z"/>
			<path class="st3" d="M467.953217,81.372025c-6.104889,0-7.87439-1.803581-7.87439-6.83004v-2.107277
				c0-5.032661,1.769501-6.83934,7.87439-6.83934h9.062805V57.33363h4.485718v17.208355
				c0,5.026459-1.778778,6.83004-7.866638,6.83004H467.953217z M464.566101,74.82708c0,2.7565,0.766968,3.252327,3.957306,3.252327
				h5.015625c2.813843,0,3.47699-0.619781,3.47699-3.236832v-5.918953h-8.515839c-3.167114,0-3.934082,0.46019-3.934082,3.263176
				V74.82708z"/>
			<path class="st3" d="M501.08606,81.372177c-6.066193,0-7.832581-1.806679-7.832581-6.837791V72.42247
				c0-5.040413,1.766388-6.847084,7.832581-6.847084h11.596191l0.86615,3.353035h-12.428284
				c-2.840149,0-3.387115,1.062935-3.387115,3.648994v2.243622c0,2.49929,0.692596,3.255424,3.487823,3.255424h11.689209
				l-0.638428,3.295715H501.08606z"/>
			<path class="st2" d="M322.253052,81.372177v-9.154236c0-4.715027,2.104156-6.639458,7.513367-6.639458h7.880554
				l-0.863037,3.360786h-6.929199c-2.446625,0-3.820984,1.115616-3.836487,2.995117v9.43779H322.253052z"/>
			<path class="st3" d="M323.602631,51.450466v9.15424c0,4.715019-2.105713,6.639458-7.513367,6.639458h-7.882111l0.639923-3.360794
				h7.152344c2.446594,0,3.820953-1.117161,3.838013-2.993561v-9.439342H323.602631z"/>
			<path class="st3" d="M533.991272,74.23069h-11.579163c-1.035034,0-1.678101,0.342438-1.678101,1.597504v1.070679
				c0,1.117165,0.694153,1.501427,1.843872,1.501427h8.402771c2.113464,0,3.01062-0.469482,3.01062-2.837067V74.23069z
				 M522.229309,81.372177c-4.674805,0-5.950012-1.616096-5.950012-4.172707v-1.490585
				c0-2.646484,1.152832-4.158768,5.672607-4.158768h12.039368v-0.361023c0-1.99881-0.779419-2.260674-2.758057-2.260674h-10.939209
				l-0.852234-3.353035h11.791443c5.193787,0,7.235962,1.80822,7.235962,5.81514v3.853516
				c0,4.581772-1.643921,6.128136-7.417297,6.128136H522.229309z"/>
		</g>
	</g>
</g>
<g class="st4">
	<defs>
		<rect id="SVGID_7_" y="0" width="595.280029" height="841.890015"/>
	</defs>
	<clipPath id="SVGID_8_" class="st5">
		<use xlink:href="#SVGID_7_"  style="overflow:visible;"/>
	</clipPath>
	<g id="rmDesignElement_mit_Verlauf" class="st6">
		<g>
			<defs>
				<rect id="SVGID_9_" x="-416.375549" y="-78.374619" width="1254.24231" height="977.423889"/>
			</defs>
			<clipPath id="SVGID_10_">
				<use xlink:href="#SVGID_9_"  style="overflow:visible;"/>
			</clipPath>
			<g class="st7">
				<defs>
					<rect id="SVGID_11_" x="-416.375549" y="-78.374619" width="1254.243408" height="977.423889"/>
				</defs>
				<clipPath id="SVGID_12_">
					<use xlink:href="#SVGID_11_"  style="overflow:visible;"/>
				</clipPath>
				<path class="st8" d="M124.006065-78.374619L-13.295453-49.724262l73.832932,237.730087
					c3.916183,13.233505,3.975342,26.081055,0.23035,38.323563c-3.775078,12.372223-11.425869,24.113556-22.851765,35.003983
					c-11.526539,10.985962-26.887276,21.083618-45.973309,30.061584c-19.2178,9.041321-42.178532,16.928741-68.726494,23.417328
					l-321.396118,78.538727l-18.195709,123.717285l369.824554-94.706879
					c60.755066-15.556854,110.502403-32.53952,150.078445-51.541504c38.98455-18.720734,67.97419-39.339417,87.781364-62.381073
					c19.437851-22.621399,29.96196-47.491425,32.39534-75.05014c2.392868-26.947479-2.963623-56.34285-15.151154-88.527481
					L124.006065-78.374619z"/>
				<defs>
					
						<filter id="Adobe_OpacityMaskFilter" filterUnits="userSpaceOnUse" x="255.334686" y="142.274246" width="591.871155" height="757.812561">
						<feColorMatrix  type="matrix" values="1 0 0 0 0  0 1 0 0 0  0 0 1 0 0  0 0 0 1 0"/>
					</filter>
				</defs>
				<mask maskUnits="userSpaceOnUse" x="255.334686" y="142.274246" width="591.871155" height="757.812561" id="SVGID_13_">
					<g class="st9">
						
							<linearGradient id="SVGID_14_" gradientUnits="userSpaceOnUse" x1="-1229.04126" y1="-0.742852" x2="-1228.00354" y2="-0.742852" gradientTransform="matrix(552.381287 0 0 -552.381287 679164.0625 -0.000122)">
							<stop  offset="0" style="stop-color:#FFFFFF"/>
							<stop  offset="1" style="stop-color:#000000"/>
						</linearGradient>
						<rect x="-416.375549" y="-78.374557" class="st10" width="1254.243286" height="977.423828"/>
					</g>
				</mask>
				<g class="st11">
					<g>
						<defs>
							<rect id="SVGID_15_" x="255.334686" y="142.274246" width="591.871155" height="757.812561"/>
						</defs>
						<clipPath id="SVGID_16_">
							<use xlink:href="#SVGID_15_"  style="overflow:visible;"/>
						</clipPath>
						<path class="st12" d="M811.180481,149.537674l-299.887085,75.01796
							c-53.473724,13.379883-97.70578,28.370163-133.164337,45.628876
							c-35.980469,17.509735-63.047272,37.407227-81.693329,60.425018
							c-18.987427,23.452576-29.300934,50.249573-31.374207,81.253357c-2.112701,31.758148,4.416351,68.123627,19.316376,110.162079
							L417.973877,899.04895l187.310303-59.903137L447.65564,466.022461c-6.689941-16.258362-8.953094-31.699005-6.970062-46.104095
							c1.95285-14.250427,8.061707-27.503662,18.135498-39.564606c9.984558-11.946808,23.892517-22.736542,41.567322-32.175262
							c17.55545-9.368195,38.854889-17.423676,63.798553-23.973511l273.68158-71.819809L811.180481,149.537674z"/>
					</g>
				</g>
			</g>
		</g>
	</g>
</g>
<polygon class="st13" points="-5.515902,427.090149 4.983573,427.090149 4.983573,427.090149 -5.515902,427.090149 "/>
<text transform="matrix(1 0 0 1 -518.90802 1600.620239)" style="font-family:'ArialMT'; font-size:10px;">DocRev: 2016-2-16</text>
<g>
	<defs>
		<rect id="SVGID_17_" x="22.410152" y="455.537628" width="542.997437" height="142.321304"/>
	</defs>
	<use xlink:href="#SVGID_17_"  style="overflow:visible;fill:#FFFFFF;"/>
	<clipPath id="SVGID_18_">
		<use xlink:href="#SVGID_17_"  style="overflow:visible;"/>
	</clipPath>
	<g class="st14">
		<defs>
			<rect id="SVGID_19_" x="22.410152" y="455.537628" width="542.997437" height="142.321304"/>
		</defs>
		<use xlink:href="#SVGID_19_"  style="overflow:visible;fill:#FFFFFF;"/>
		<clipPath id="SVGID_20_">
			<use xlink:href="#SVGID_19_"  style="overflow:visible;"/>
		</clipPath>
		<g class="st15">
			<g>
				<defs>
					<rect id="SVGID_21_" x="6.677683" y="445.665283" width="574.462341" height="153.603989"/>
				</defs>
				<use xlink:href="#SVGID_21_"  style="overflow:visible;fill:#FFFFFF;"/>
				<clipPath id="SVGID_22_">
					<use xlink:href="#SVGID_21_"  style="overflow:visible;"/>
				</clipPath>
				<g class="st16">
					<path class="st17" d="M24.36669,399.987823c0,0-9.909708,0-9.909708,7.995209v126.330872c0,0,0,7.995239,9.909708,7.995239
						h523.176208c0,0,9.911438,0,9.911438-7.995239V407.983032c0,0,0-7.995209-9.911438-7.995209H24.36669z"/>
				</g>
			</g>
		</g>
	</g>
</g>
<g>
	<defs>
		<rect id="SVGID_23_" width="595.280029" height="841.890015"/>
	</defs>
	<clipPath id="SVGID_24_">
		<use xlink:href="#SVGID_23_"  style="overflow:visible;"/>
	</clipPath>
	<g id="rmDesignElement_als_Kontur" class="st18">
		<g>
			<defs>
				<rect id="SVGID_25_" x="-374.68512" y="-29.737019" width="1198.627686" height="937.727783"/>
			</defs>
			<clipPath id="SVGID_26_">
				<use xlink:href="#SVGID_25_"  style="overflow:visible;"/>
			</clipPath>
			<g class="st19">
				<defs>
					<rect id="SVGID_27_" x="-374.68512" y="-29.737019" width="1198.625854" height="937.727783"/>
				</defs>
				<clipPath id="SVGID_28_">
					<use xlink:href="#SVGID_27_"  style="overflow:visible;"/>
				</clipPath>
				<path class="st20" d="M141.894485-28.591825L10.944349-1.174929L81.36187,226.320358
					c3.735031,12.663773,3.791443,24.958206,0.219696,36.67363c-3.600449,11.839569-10.897324,23.075409-21.794678,33.497009
					c-10.993336,10.51297-25.643505,20.175903-43.846645,28.767365c-18.32881,8.652039-40.227413,16.19989-65.547295,22.409149
					l-306.528778,75.157471l-17.353973,118.390961l352.71698-90.629547
					c57.944618-14.887085,105.390709-31.138611,143.136017-49.32251c37.181183-17.914764,64.829803-37.645752,83.720718-59.695435
					c18.538681-21.647491,28.575958-45.446808,30.89679-71.819061c2.282166-25.787323-2.826538-53.91716-14.450287-84.716171
					L141.894485-28.591825z"/>
				<path class="st20" d="M797.281128,189.508514l-286.014709,71.788269
					c-51.000092,12.803833-93.186035,27.148773-127.004303,43.664429c-34.316101,16.75592-60.130829,35.796783-77.914307,57.823608
					c-18.1091,22.442902-27.945526,48.086212-29.922882,77.755219c-2.014984,30.3909,4.212036,65.190735,18.422821,105.419312
					l127.415985,360.792297l178.64563-57.324219L450.572479,492.36792c-6.380493-15.55838-8.53894-30.33429-6.647644-44.119202
					c1.862518-13.636902,7.688782-26.31955,17.29657-37.861267c9.522675-11.432465,22.787292-21.75766,39.64447-30.790039
					c16.743378-8.964874,37.057526-16.673553,60.847321-22.941406l261.021423-68.727814L797.281128,189.508514z"/>
			</g>
		</g>
	</g>
</g>
</svg>
